<svg width="24" height="24" viewBox="0 0 24 24" fill="none" xmlns="http://www.w3.org/2000/svg">
<path d="M6.70417 16.2978H7.46762H20.4845C20.799 16.2978 21.0761 16.0912 21.1659 15.7897L23.9704 6.3731C24.0345 6.15795 23.9932 5.92516 23.859 5.74516C23.7248 5.56516 23.5135 5.45913 23.289 5.45913H5.19324L4.23643 2.24631C4.14666 1.94491 3.86949 1.73828 3.55496 1.73828H0.711048C0.318376 1.73823 0 2.05656 0 2.44928C0 2.84196 0.318376 3.16033 0.711048 3.16033H3.02485L3.97712 6.35773C3.98002 6.36827 3.98307 6.37873 3.98644 6.38904L6.51611 14.8829C5.07217 14.98 3.92687 16.185 3.92687 17.6531C3.92687 19.1845 5.17276 20.4304 6.70412 20.4304H7.41001C7.7185 21.4881 8.69613 22.2633 9.85207 22.2633C11.008 22.2633 11.9856 21.4881 12.2941 20.4304H16.0667C16.3752 21.4881 17.3528 22.2633 18.5088 22.2633C19.6647 22.2633 20.6423 21.4881 20.9508 20.4304H21.8669C22.2596 20.4304 22.5779 20.1121 22.5779 19.7194C22.5779 19.3267 22.2596 19.0083 21.8669 19.0083H20.9508C20.6423 17.9506 19.6647 17.1754 18.5088 17.1754C17.3528 17.1754 16.3752 17.9506 16.0667 19.0083H12.2941C11.9856 17.9506 11.008 17.1754 9.85207 17.1754C8.69613 17.1754 7.71845 17.9506 7.41001 19.0083H6.70412C5.95684 19.0083 5.34892 18.4004 5.34892 17.6531C5.34892 16.9058 5.95689 16.2978 6.70417 16.2978ZM17.135 6.88113H22.3354L21.3566 10.1674H17.135V6.88113ZM17.135 11.5895H20.9331L19.9543 14.8758H17.135V11.5895ZM11.8736 6.88113H15.713V10.1674H11.8736V6.88113ZM11.8736 11.5895H15.7129V14.8758H11.8736V11.5895ZM10.4516 14.8758H7.99778L7.01908 11.5895H10.4516V14.8758ZM5.61685 6.88113H10.4516V10.1674H6.59556L5.61685 6.88113ZM18.5088 18.5975C19.1274 18.5975 19.6307 19.1007 19.6307 19.7193C19.6307 20.3379 19.1274 20.8412 18.5088 20.8412C17.8902 20.8412 17.387 20.3379 17.387 19.7193C17.387 19.1007 17.8902 18.5975 18.5088 18.5975ZM9.85211 18.5975C10.4707 18.5975 10.974 19.1007 10.974 19.7193C10.974 20.3379 10.4707 20.8412 9.85211 20.8412C9.2335 20.8412 8.73025 20.3379 8.73025 19.7193C8.73025 19.1007 9.2335 18.5975 9.85211 18.5975Z" fill="white"/>
</svg>
