<svg width="28" height="28" viewBox="0 0 28 28" fill="none" xmlns="http://www.w3.org/2000/svg">
<g clip-path="url(#clip0)">
<path d="M25.4605 10.5H22.909V13.0398H20.3691V15.5913H22.909V18.1312H25.4605V15.5913H28.0003V13.0398H25.4605V10.5Z" fill="white"/>
<path d="M8.75 22.75C13.7993 22.75 17.1535 19.2057 17.1535 14.203C17.1535 13.6302 17.094 13.188 17.0112 12.747H8.75117V15.7547H13.7177C13.5147 17.0322 12.2138 19.5265 8.75117 19.5265C5.768 19.5265 3.332 17.0555 3.332 14C3.332 10.9445 5.76683 8.47233 8.75117 8.47233C10.458 8.47233 11.592 9.20033 12.2372 9.821L14.6125 7.54133C13.083 6.10983 11.1137 5.25 8.75 5.25C3.91533 5.25 0 9.16533 0 14C0 18.8347 3.91533 22.75 8.75 22.75Z" fill="white"/>
</g>
<defs>
<clipPath id="clip0">
<rect width="28" height="28" fill="white"/>
</clipPath>
</defs>
</svg>
