<svg width="20" height="20" viewBox="0 0 20 20" fill="none" xmlns="http://www.w3.org/2000/svg">
<g clip-path="url(#clip0)">
<path d="M10.2717 0C4.78917 0.000833333 1.875 3.51333 1.875 7.34333C1.875 9.11917 2.8675 11.335 4.45667 12.0375C4.91 12.2417 4.85 11.9925 5.24 10.5008C5.27083 10.3767 5.255 10.2692 5.155 10.1533C2.88333 7.52583 4.71167 2.12417 9.9475 2.12417C17.525 2.12417 16.1092 12.6092 11.2658 12.6092C10.0175 12.6092 9.0875 11.6292 9.38167 10.4167C9.73833 8.9725 10.4367 7.42 10.4367 6.37917C10.4367 3.75583 6.52833 4.145 6.52833 7.62083C6.52833 8.695 6.90833 9.42 6.90833 9.42C6.90833 9.42 5.65083 14.5 5.4175 15.4492C5.0225 17.0558 5.47083 19.6567 5.51 19.8808C5.53417 20.0042 5.6725 20.0433 5.75 19.9417C5.87417 19.7792 7.39417 17.6108 7.82 16.0433C7.975 15.4725 8.61083 13.1558 8.61083 13.1558C9.03 13.9125 10.2383 14.5458 11.5258 14.5458C15.3558 14.5458 18.1242 11.1792 18.1242 7.00167C18.1108 2.99667 14.6833 0 10.2717 0V0Z" fill="white"/>
</g>
<defs>
<clipPath id="clip0">
<rect width="20" height="20" fill="white"/>
</clipPath>
</defs>
</svg>
