<svg width="25" height="25" viewBox="0 0 25 25" fill="none" xmlns="http://www.w3.org/2000/svg">
<path d="M8.14437 21.8857C16.9892 21.8857 21.826 14.5581 21.826 8.20405C21.826 7.99594 21.8217 7.78868 21.8124 7.58257C22.7512 6.90376 23.5672 6.05667 24.211 5.09248C23.3495 5.47561 22.4221 5.73317 21.4496 5.8497C22.4423 5.25416 23.2046 4.31248 23.564 3.18991C22.635 3.74073 21.606 4.14091 20.5107 4.35705C19.6332 3.42239 18.3838 2.83789 17.0005 2.83789C14.3451 2.83789 12.1916 4.99129 12.1916 7.64578C12.1916 8.02331 12.2339 8.39024 12.3163 8.74226C8.3198 8.54117 4.77581 6.62784 2.4044 3.71823C1.99161 4.42872 1.75339 5.25431 1.75339 6.13522C1.75339 7.8033 2.60234 9.27631 3.89318 10.1377C3.10428 10.1135 2.36326 9.89693 1.71541 9.53646C1.71469 9.55667 1.71469 9.5763 1.71469 9.5978C1.71469 11.9266 3.37217 13.8711 5.57273 14.3117C5.16853 14.4216 4.74327 14.4808 4.30468 14.4808C3.99537 14.4808 3.6938 14.4504 3.40083 14.3941C4.013 16.3047 5.7883 17.695 7.89297 17.734C6.2471 19.024 4.17382 19.7924 1.92051 19.7924C1.53295 19.7924 1.14982 19.7701 0.773438 19.7257C2.90161 21.0898 5.42868 21.8858 8.14451 21.8858" fill="white"/>
</svg>
