<svg width="23" height="23" viewBox="0 0 23 23" fill="none" xmlns="http://www.w3.org/2000/svg">
<path d="M20.8723 11.6435C20.6347 10.6109 19.79 9.84919 18.7734 9.73581C16.3665 9.46694 13.9292 9.46567 11.5039 9.46694C9.07747 9.46567 6.64068 9.46694 4.23306 9.73581C3.21695 9.84944 2.37281 10.6111 2.13539 11.6435C1.79703 13.1139 1.79297 14.719 1.79297 16.233C1.79297 17.747 1.79297 19.3518 2.13133 20.8222C2.36875 21.8546 3.21289 22.6163 4.22951 22.7299C6.63662 22.999 9.07341 23.0001 11.4996 22.999C13.9259 23.0003 16.3622 22.999 18.7701 22.7299C19.7862 22.6163 20.6309 21.8546 20.8683 20.8222C21.2064 19.3518 21.2082 17.747 21.2082 16.233C21.2079 14.7187 21.2105 13.1139 20.8723 11.6435ZM7.33086 12.7831H5.92565V20.25H4.62038V12.7831H3.24079V11.56H7.33086V12.7831ZM10.8761 20.2503H9.70195V19.5438C9.2355 20.0785 8.79263 20.3393 8.36117 20.3393C7.98298 20.3393 7.72274 20.1861 7.6053 19.8581C7.54138 19.6623 7.50181 19.3523 7.50181 18.8953V13.7751H8.67493V18.5424C8.67493 18.8174 8.67493 18.9602 8.68559 18.9988C8.71374 19.1809 8.80277 19.2732 8.96003 19.2732C9.19542 19.2732 9.44146 19.0918 9.7017 18.7238V13.7751H10.8758L10.8761 20.2503ZM15.3334 18.3068C15.3334 18.9057 15.2931 19.3371 15.2147 19.6116C15.058 20.0932 14.7442 20.3393 14.2775 20.3393C13.86 20.3393 13.4572 20.1075 13.0648 19.623V20.2505H11.8917V11.56H13.0648V14.3981C13.4438 13.9316 13.846 13.6958 14.2775 13.6958C14.7442 13.6958 15.0582 13.9415 15.2147 14.4263C15.2936 14.6868 15.3334 15.1149 15.3334 15.728V18.3068ZM19.7614 17.2265H17.4149V18.3743C17.4149 18.9736 17.6109 19.273 18.0142 19.273C18.3031 19.273 18.4713 19.1159 18.5383 18.8024C18.5492 18.7388 18.5647 18.478 18.5647 18.0075H19.7616V18.1787C19.7616 18.5569 19.7472 18.8174 19.7365 18.9346C19.6972 19.1943 19.6049 19.43 19.4626 19.6374C19.1376 20.1077 18.6562 20.3395 18.0434 20.3395C17.4296 20.3395 16.9624 20.1186 16.6232 19.6765C16.3744 19.3523 16.2466 18.842 16.2466 18.1539V15.886C16.2466 15.1938 16.3599 14.6875 16.6093 14.3603C16.9482 13.9172 17.4151 13.6965 18.0145 13.6965C18.6032 13.6965 19.0699 13.9172 19.3986 14.3603C19.6444 14.6875 19.7619 15.1938 19.7619 15.886V17.2265H19.7614Z" fill="white"/>
<path d="M18.0038 14.752C17.6116 14.752 17.415 15.0515 17.415 15.6501V16.2492H18.5882V15.6501C18.5879 15.0515 18.3918 14.752 18.0038 14.752Z" fill="white"/>
<path d="M13.6496 14.752C13.4563 14.752 13.2605 14.8433 13.0645 15.0373V18.9838C13.2603 19.1801 13.4563 19.273 13.6496 19.273C13.988 19.273 14.16 18.9838 14.16 18.3992V15.6354C14.16 15.0515 13.988 14.752 13.6496 14.752Z" fill="white"/>
<path d="M14.3055 8.86997C14.738 8.86997 15.188 8.60719 15.66 8.06642V8.78018H16.8458V2.23633H15.66V7.23775C15.3972 7.60909 15.1481 7.79273 14.911 7.79273C14.7522 7.79273 14.6589 7.69888 14.633 7.51499C14.6185 7.47618 14.6185 7.33185 14.6185 7.05411V2.23633H13.4365V7.41074C13.4365 7.87288 13.4761 8.18563 13.5415 8.38373C13.6607 8.71525 13.9238 8.86997 14.3055 8.86997Z" fill="white"/>
<path d="M6.05051 5.22463V8.78102H7.36542V5.22463L8.94716 0H7.61754L6.72039 3.44834L5.78697 0H4.40332C4.68056 0.813955 4.96895 1.63197 5.24619 2.44668C5.66801 3.67129 5.93129 4.59457 6.05051 5.22463Z" fill="white"/>
<path d="M10.7087 8.87099C11.3028 8.87099 11.7644 8.64752 12.0919 8.2011C12.3407 7.87364 12.4599 7.35772 12.4599 6.66222V4.37077C12.4599 3.67121 12.3409 3.15986 12.0919 2.82935C11.7644 2.38167 11.303 2.1582 10.7087 2.1582C10.1177 2.1582 9.65634 2.38167 9.32812 2.82935C9.07625 3.15986 8.95703 3.67121 8.95703 4.37077V6.66222C8.95703 7.35772 9.07625 7.87364 9.32812 8.2011C9.65608 8.64752 10.1177 8.87099 10.7087 8.87099ZM10.1428 4.1331C10.1428 3.52765 10.3265 3.22581 10.7087 3.22581C11.091 3.22581 11.2741 3.52739 11.2741 4.1331V6.88569C11.2741 7.49114 11.091 7.794 10.7087 7.794C10.3265 7.794 10.1428 7.49114 10.1428 6.88569V4.1331Z" fill="white"/>
</svg>
