<svg width="26" height="17" viewBox="0 0 26 17" fill="none" xmlns="http://www.w3.org/2000/svg">
<path d="M24.6666 0H1.33336C0.59998 0 0 0.578165 0 1.28483V15.4182C0 16.1249 0.59998 16.7031 1.33336 16.7031H24.6667C25.4 16.7031 26 16.125 26 15.4182V1.28483C26 0.578165 25.4 0 24.6666 0ZM24.1663 0.963576L13.767 8.48007C13.58 8.61718 13.293 8.70296 12.9999 8.70169C12.7069 8.70296 12.42 8.61718 12.2329 8.48007L1.83366 0.963576H24.1663ZM18.6113 8.97602L24.278 15.7215C24.2837 15.7283 24.2906 15.7334 24.2967 15.7395H1.7033C1.7093 15.7331 1.7163 15.7283 1.72199 15.7215L7.38867 8.97602C7.56229 8.76917 7.52939 8.46592 7.31433 8.29822C7.09967 8.13092 6.78498 8.16263 6.61131 8.36952L0.999984 15.0492V1.56587L11.6333 9.25089C12.033 9.53774 12.5193 9.664 12.9999 9.66527C13.4799 9.66429 13.9666 9.53804 14.3665 9.25089L24.9998 1.56587V15.0491L19.3886 8.36952C19.215 8.16267 18.9 8.13087 18.6856 8.29822C18.4706 8.46553 18.4376 8.76917 18.6113 8.97602Z" fill="#AFAFAF"/>
</svg>
