<svg width="23" height="32" viewBox="0 0 23 32" fill="none" xmlns="http://www.w3.org/2000/svg">
<path d="M16.9604 22.6694C16.1504 22.6694 15.4154 22.2719 14.9945 21.606C14.8365 21.356 14.498 21.2768 14.2387 21.4291C13.9794 21.5813 13.8971 21.9075 14.0551 22.1574C14.3479 22.6205 14.7442 22.9945 15.2055 23.2621L14.6355 25.7549L13.2612 24.23C13.5107 23.9536 13.4505 23.6307 13.2356 23.4506C13.0065 23.2586 12.659 23.2819 12.4597 23.5027L11.4926 24.5744L9.05668 21.9662C9.26397 21.5826 9.38964 21.1615 9.42553 20.7226C14.14 22.06 18.856 18.6311 18.856 13.9211V9.54023C18.856 9.24753 18.6097 9.01022 18.306 9.01022C18.0023 9.01022 17.756 9.24753 17.756 9.54023V13.9211C17.756 17.2454 14.9495 19.95 11.4998 19.95C8.05005 19.95 5.24354 17.2455 5.24354 13.9211V9.42309C6.58437 9.34975 7.72486 8.5385 8.13131 7.06825C10.4214 8.48153 12.9883 9.39719 15.6822 9.76058C15.9842 9.80113 16.2613 9.5982 16.3032 9.30914C16.3453 9.01929 16.1356 8.75137 15.8348 8.71076C13.0917 8.34074 10.4148 7.35141 8.0363 5.72877C7.67268 5.4806 7.16634 5.73308 7.16854 6.16478C7.16861 6.17796 7.16345 7.49246 6.12877 8.0923C5.47447 8.47166 4.81269 8.34916 4.69884 8.34796C4.41772 8.34538 4.1795 8.54864 4.14746 8.81676C4.14141 8.86804 4.14355 8.69347 4.14355 13.0579C3.77615 12.8743 3.5248 12.5088 3.5248 12.0883V5.63138C3.5248 4.93727 4.11075 4.3726 4.83104 4.3726C5.05592 4.3726 5.25819 4.24063 5.34172 4.03943C6.09302 2.2295 7.88546 1.06003 9.90836 1.06003H14.6251C17.3372 1.06003 19.5435 3.18624 19.5435 5.79973V12.0883C19.5435 12.381 19.7898 12.6183 20.0935 12.6183C20.3972 12.6183 20.6435 12.381 20.6435 12.0883V5.79973C20.6435 2.60177 17.9437 0 14.6251 0H9.90836C7.54886 0 5.44532 1.30052 4.45753 3.34047C3.30748 3.51398 2.4248 4.47523 2.4248 5.63138V12.0883C2.4248 13.1022 3.16097 13.9544 4.14911 14.1832C4.25176 16.8902 5.93661 19.2146 8.33729 20.3207V20.4605C8.33729 21.051 8.09831 21.6058 7.66443 22.0228C6.89491 22.7622 5.9252 22.6694 6.03905 22.6694C2.90158 22.6694 0.362305 25.1161 0.362305 28.1399V31.2707C0.362305 31.5634 0.608567 31.8008 0.912303 31.8008C1.21604 31.8008 1.4623 31.5634 1.4623 31.2707V28.1399C1.4623 25.7022 3.50933 23.7294 6.03919 23.7295C6.27988 23.7295 6.52016 23.7048 6.75776 23.6559L7.52521 27.0122C7.62236 27.4372 8.18184 27.5737 8.4776 27.2456L9.56117 26.0433L8.89162 31.205C8.85394 31.4955 9.06782 31.7603 9.36915 31.7967C9.6711 31.8329 9.94548 31.6265 9.98316 31.3365L10.7569 25.3711C10.7919 25.4085 11.0977 25.7389 11.1368 25.7723C11.3639 25.9643 11.7097 25.9448 11.9115 25.7254C12.0203 25.6054 11.739 25.917 12.2414 25.3602L13.0165 31.3364C13.0541 31.6265 13.3285 31.8329 13.6305 31.7966C13.9319 31.7603 14.1458 31.4954 14.1081 31.205L13.4385 26.0432L14.5221 27.2456C14.8183 27.5742 15.3775 27.4364 15.4745 27.0121L16.2419 23.6557C16.4749 23.7034 16.7151 23.7293 16.9604 23.7293C19.49 23.7294 21.5373 25.702 21.5373 28.1399V31.2707C21.5373 31.5634 21.7835 31.8008 22.0873 31.8008C22.391 31.8008 22.6373 31.5634 22.6373 31.2707V28.1399C22.6373 25.1164 20.0983 22.6693 16.9604 22.6694ZM8.3641 25.7549L7.79396 23.2613C8.00364 23.1393 8.20034 22.994 8.38163 22.8278L9.7151 24.2557L8.3641 25.7549Z" fill="#AFAFAF"/>
</svg>
