<svg width="20" height="20" viewBox="0 0 20 20" fill="none" xmlns="http://www.w3.org/2000/svg">
<path d="M19.4752 14.868L15.4271 12.2665C14.9134 11.939 14.2248 12.0467 13.845 12.5141L12.6658 13.9751C12.5143 14.1677 12.2388 14.2236 12.0196 14.1062L11.7953 13.987C11.0517 13.5965 10.1266 13.1102 8.26251 11.3132C6.39845 9.51618 5.89286 8.62391 5.48757 7.90867L5.36458 7.69251C5.24112 7.48128 5.29799 7.21469 5.49788 7.06748L7.01297 5.93147C7.49774 5.56544 7.60972 4.90202 7.27028 4.40681L4.57068 0.505715C4.2228 0.0014325 3.52486 -0.14995 2.9863 0.162036L1.29355 1.14196C0.761671 1.44329 0.371456 1.93132 0.204723 2.50376C-0.404835 4.64412 0.0537292 8.33805 5.70024 13.7802C10.1919 18.1084 13.5358 19.2724 15.8341 19.2724C16.363 19.2746 16.8899 19.2083 17.4005 19.0752C17.9947 18.9147 18.5012 18.5386 18.8136 18.0259L19.8315 16.3956C20.1557 15.8765 19.9987 15.2035 19.4752 14.868ZM19.2572 16.066L18.2417 17.6973C18.0173 18.0674 17.653 18.3395 17.2252 18.4566C15.1748 18.9991 11.5927 18.5498 6.17181 13.3257C0.750931 8.10168 0.284711 4.64992 0.847635 2.6737C0.969336 2.26088 1.25203 1.90937 1.6365 1.6928L3.32926 0.714157C3.56294 0.578658 3.86586 0.644338 4.01681 0.863169L5.48328 2.9849L6.71411 4.76392C6.86151 4.97873 6.81308 5.26662 6.6028 5.42557L5.08736 6.56158C4.62618 6.90142 4.49448 7.51632 4.77842 8.00434L4.89875 8.21505C5.32471 8.96789 5.85428 9.90446 7.78766 11.7673C9.72105 13.6302 10.6926 14.1406 11.4734 14.551L11.6924 14.6673C12.1988 14.9409 12.8369 14.814 13.1895 14.3696L14.3683 12.9091C14.5333 12.7066 14.8319 12.66 15.0549 12.8019L19.1026 15.4035C19.3299 15.5488 19.398 15.8409 19.2572 16.066Z" fill="#AFAFAF"/>
</svg>
