<svg width="26" height="18" viewBox="0 0 26 18" fill="none" xmlns="http://www.w3.org/2000/svg">
<path d="M24.6666 0.333008H1.33336C0.59998 0.333008 0 0.932988 0 1.66632V16.333C0 17.0663 0.59998 17.6664 1.33336 17.6664H24.6667C25.4 17.6664 26 17.0664 26 16.333V1.66632C26 0.932988 25.4 0.333008 24.6666 0.333008ZM24.1663 1.33294L13.767 9.13304C13.58 9.27533 13.293 9.36435 12.9999 9.36303C12.7069 9.36435 12.42 9.27533 12.2329 9.13304L1.83366 1.33294H24.1663ZM18.6113 9.64771L24.278 16.6478C24.2837 16.6548 24.2907 16.6601 24.2967 16.6664H1.7033C1.7093 16.6598 1.7163 16.6548 1.72199 16.6478L7.38867 9.64771C7.56229 9.43306 7.52939 9.11837 7.31433 8.94434C7.09968 8.77072 6.78498 8.80363 6.61131 9.01833L0.999984 15.95V1.95796L11.6333 9.93295C12.033 10.2306 12.5193 10.3616 12.9999 10.363C13.4799 10.3619 13.9666 10.2309 14.3665 9.93295L24.9998 1.95796V15.9499L19.3886 9.01833C19.215 8.80368 18.9 8.77067 18.6856 8.94434C18.4706 9.11796 18.4376 9.43306 18.6113 9.64771Z" fill="#FFD8CB"/>
</svg>
