<svg width="16" height="22" viewBox="0 0 16 22" fill="none" xmlns="http://www.w3.org/2000/svg">
<path d="M8 0C3.865 0 0.5 3.72717 0.5 8.30958C0.5 14.8207 7.295 21.5435 7.58417 21.8258C7.70333 21.9422 7.85167 22 8 22C8.14833 22 8.29667 21.9423 8.41583 21.8268C8.705 21.5435 15.5 14.8207 15.5 8.30958C15.5 3.72717 12.135 0 8 0ZM8 12.8333C5.7025 12.8333 3.83333 10.7773 3.83333 8.25C3.83333 5.72275 5.7025 3.66667 8 3.66667C10.2975 3.66667 12.1667 5.72275 12.1667 8.25C12.1667 10.7773 10.2975 12.8333 8 12.8333Z" fill="#FFD8CB"/>
</svg>
